<?xml version="1.0" encoding="utf-8"?>
<!-- Generator: Adobe Illustrator 15.0.0, SVG Export Plug-In . SVG Version: 6.00 Build 0)  -->
<!DOCTYPE svg PUBLIC "-//W3C//DTD SVG 1.1//EN" "http://www.w3.org/Graphics/SVG/1.1/DTD/svg11.dtd">
<svg version="1.1" id="Layer_1" xmlns="http://www.w3.org/2000/svg" xmlns:xlink="http://www.w3.org/1999/xlink" x="0px" y="0px"
	 width="612px" height="792px" viewBox="0 0 612 792" enable-background="new 0 0 612 792" xml:space="preserve">
<g id="NAxGRk_1_">
	<g>
		<path fill-rule="evenodd" clip-rule="evenodd" d="M441.403,311.412c1.543,1.23-0.76,3.169,0,5.407
			c1.746,1.41,4.012-0.871,5.948,0.541c4.724,6.873,7.286,14.168,5.948,23.252c-0.909,6.175-5.93,11.371-7.029,16.223
			c-1.721,7.586-0.095,14.841-1.623,22.171c-0.935,4.488-2.266,8.697-3.785,11.897c-3.625,7.637-11.554,9.84-13.519,19.467
			c0.115-1.661-0.699-2.788,0-4.867c1.02-3.033,5.587-6.061,7.57-8.652c2.176-2.843,5.052-6.098,6.489-9.734
			c3.058-7.73,2.807-17.933,3.785-28.12c0.103-1.067,0.234-2.606,0.541-3.785c1.341-5.159,5.538-9.498,6.489-14.601
			c1.477-7.922-1.252-16.033-5.948-22.171c-3.072-0.187-4.337,1.432-7.03,1.622C439.66,316.879,440.661,314.274,441.403,311.412z"/>
		<path fill-rule="evenodd" clip-rule="evenodd" d="M185.082,327.634c5.575,2.897,4.801,12.143,8.652,16.764
			c-1.462,1.963-1.557,5.292-4.867,5.408c-1.506-3.611-1.631-9.044-1.082-11.897c-6.226-0.097-4.399,7.858-5.408,12.979
			c-2.393-4.096-2.513-10.465-5.407-14.06c-0.097-3.702-0.112-7.322,1.622-9.193C180.756,327.634,182.919,327.634,185.082,327.634z"
			/>
		<path fill-rule="evenodd" clip-rule="evenodd" d="M193.193,350.887c3.95,3.63,6.757,12.594,2.163,17.304
			c-1.596,11.33,4.144,15.323,8.652,20.549c0.971,4.56-1.521,9.991-4.326,5.948c-0.091-1.172,1.918-0.245,2.704-0.541
			c0.323-2.694-2.144-3.187,0-4.867c-2.595-2.585-6.591-2.132-9.193-4.326c-2.354-1.985-2.604-4.996-4.867-7.03
			c0.194-8.097-0.204-16.788,3.785-21.09C191.887,354.267,192.375,352.412,193.193,350.887z"/>
		<path fill-rule="evenodd" clip-rule="evenodd" d="M181.297,373.599c2.539,10.08,5.211,20.025,9.734,28.12
			C184.723,395.409,182.314,385.199,181.297,373.599z"/>
		<path fill-rule="evenodd" clip-rule="evenodd" d="M390.031,438.49c1.996,0.436,0.448,2.227,0,3.245
			C388.508,441.188,390.181,439.438,390.031,438.49z"/>
		<path fill-rule="evenodd" clip-rule="evenodd" d="M387.868,443.898c0.587,0.133,0.366,1.075,1.081,1.081
			c-2.014,7.54-1.414,17.693-6.488,22.172c-0.699,1.645,0.267,4.954-2.164,4.867c-2.379-1.242,0.218-7.539,1.082-9.734
			C383.62,456.591,386.203,450.423,387.868,443.898z"/>
		<path fill-rule="evenodd" clip-rule="evenodd" d="M307.835,481.211c1.279-1.55,3.063,0.538,4.326-0.541
			C312.518,482.716,308.373,481.685,307.835,481.211z"/>
		<path fill-rule="evenodd" clip-rule="evenodd" d="M299.724,492.566c0.464,1.777,1.373,7.552,4.867,8.111
			c0.951,0.312,3.177-0.653,3.245,0.541c-3.932,0.507-5.871-0.978-8.652-1.622C299.638,497.528,299.889,495.256,299.724,492.566z"/>
		<path fill-rule="evenodd" clip-rule="evenodd" d="M401.387,242.194c-2.626,2.292-6.377,0.713-9.193,3.245
			c1.503-5.426,5.404-9.833,4.867-15.682c-1.082-0.278-5.689,1.493-5.948-2.163c-2.885-0.721-1.441,2.884-4.326,2.163
			c0-3.064,0-6.129,0-9.193c1.919-3.308,4.321-6.134,6.489-9.193c1.82,2.268,3.317-1.519,5.948-1.623
			c2.064-4.966,4.542-9.519,10.274-10.815c1.879,3.597,1.307,8.273,3.245,12.438c0.416,0.896,1.462,3.044,1.622,3.245
			c1.392,1.741,3.696,1.879,5.407,3.244c3.812,3.042,5.732,6.563,6.49,11.897c4.792-0.106,6.595,2.778,7.029,7.03
			c2.143-0.167-0.604-1.878,1.622-1.622c1.398,4.008,2.04,8.775,6.489,9.734c-0.156,2.547-1.579,3.828-1.081,7.03
			c2.504,4.445,4.68,12.304,0.54,16.223c-0.394,1.476,1.075,1.088,1.081,2.163c-2.312,5.078-4.348,10.432-8.111,14.06
			c1.704,0.262,1.225-1.659,3.245-1.081c0.658,3.361-1.226,4.182-1.081,7.03c0.521,1.338,2.076-0.745,3.785,0
			c0.468,3.533-2.687,3.442-3.785,5.408c-0.395,2.557,0.771,3.555,1.622,4.867c-1.912,4.103-0.804,5.973,0,10.274
			c-2.461,2.767-4.636,5.819-7.03,8.652c3.124,0.89,3.63-2.872,5.408-1.622c1.442,7.236-2.397,13.644-0.541,17.845
			c4.425-0.983,5.129-5.687,8.652-7.571c0.88-1.463,1.017-3.669,2.703-4.326c0.623,2.621,1.461,5.029,2.704,7.03
			c0.809,9.281-1.773,15.171-7.03,18.386c-1.646,0.024-2.103-1.142-3.244-1.622c-5.683,6.41,0.831,15.366,1.082,23.252
			c0.364,11.449-8.25,12.8-13.52,20.009c-0.372,1.454,1.118,1.045,1.622,1.622c-1.2,2.224-2.987,3.861-5.948,4.326
			c0.763-1.941,1.485-3.922,1.082-7.03c3.099-4.473,5.744-9.397,9.192-13.52c0.787-5.654-0.814-8.918-3.244-11.355
			c-1.438-10.115,5.488-14.667,4.325-22.712c-2.322,0.058-3.552,2.604-4.325,4.326c-1.302,2.898-2.138,7.577-3.244,11.356
			c-2.231,7.613-3.36,15.991-6.49,23.793c-0.19,2.693,0.409,6.177-1.621,7.03c-0.035-5.324,1.838-14.532-3.245-17.304
			c-0.193-8.862-1.505-18.277-1.082-27.579c0.152-3.347,0.964-6.364,0.541-9.193c-0.623-4.166-4.135-7.318-1.081-10.815
			c-1.252-3.075-4.284-4.368-5.948-7.03c-0.238-6.931,4.693-11.91,2.162-17.845c0.009-1.975,1.538-2.429,2.163-3.786
			c0.63-6.996-3.589-11.288-7.029-15.682c-2.639-3.369-5.907-5.665-8.652-7.571c-4.988-0.621-9.066,1.698-12.438-0.541
			c-1.854,1.21-2.223,3.906-3.245,5.948c-5.427,1.242-10.817,2.521-14.6,5.408c-0.349,4.494,0.013,8.278,2.162,10.275
			c-0.845,3.805,2.115,3.711,0.541,7.57c0.697,0.745,2.35,0.535,3.785,0.541c5.741,5.796,18.248,4.825,22.712,11.896
			c-4.582,5.333-17.479,2.348-20.008,9.733c0.21,2.134,2.198,2.489,3.244,3.786c7.252-2.201,19.749-0.776,22.712,4.867
			c-1.112,1.771-2.132,3.636-3.244,5.407c-2.004-0.7-1.525-3.882-3.785-4.326c-4.297-0.331-5.595,2.337-7.571,4.326
			c-1.333,0.071-2.605,0.082-3.244-0.541c-6.651,3.624-10.982,9.566-15.683,15.141c-1.013,1.03-0.059,1.358,0,2.704
			c-4.945,1.363-8.056,4.561-11.355,7.57c5.164-1.925,10.887-5.076,18.386-4.326c1.243,0.125,2.204,1.362,3.785,1.623
			c6.444,1.061,14.777-5.567,21.09-4.867c3.541,0.393,5.001,2.371,8.112,5.948c-1.923,1.887-3.167-1.493-4.867-1.623
			c-3.572,0.033-7.805-0.593-8.652,2.164c3.209,0.779,5.588-0.847,8.111-0.541c3.218,0.39,5.709,3.928,8.652,1.622
			c0.54,2.344,0.831,4.937,3.244,5.408c-3.173,2.896-0.718,4.492-0.54,9.193c-4.875,0.894-10.622,0.915-10.815,6.489
			c0.922,1.061,3.793,0.172,4.326,1.623c-2.123,4.796-7.931,2.437-11.897,3.785c-6.581,2.237-9.667,9.962-8.652,17.845
			c2.354,0.713,4.073-0.011,6.489-0.541c3.353,1.404,8.15,4.012,6.489,8.652c-2.826-0.778-4.658-2.552-7.57-3.244
			c-2.144,0.199-3.119,1.567-3.785,3.244c-2.208-0.045-3.915,0.41-4.326,2.163c3.028,1.864,5.792-0.733,8.651-0.541
			c2.206,0.148,3.416,2.056,5.949,1.623c-0.931,2.134-3.42,2.708-6.489,2.703c-7.247,4.697-15.673,11.139-25.416,16.224
			c-4.535,2.366-9.238,4.297-14.06,6.488c-2.21,1.005-4.292,2.777-6.489,3.785c-1.351,0.619-2.818,0.445-4.326,1.082
			c-1.055,0.445-1.767,1.798-2.704,2.163c-1.426,0.556-3.592,0.446-5.407,1.081c-1.748,0.612-2.995,2.002-4.326,2.164
			c-4.614,0.558-8.477-1.832-12.438-3.786c4.625-3.486,7.771-8.452,10.815-13.519c3.034-1.594,5.246,0.078,8.111-1.082
			c4.592-1.858,4.988-6.637,4.326-11.355c-0.657-4.684-6.089-10.216-1.082-12.979c0.848,0.191-0.473,0.952,0.541,1.082
			c11.438-1.322,20.116,0.908,31.905,0.54c-3.553-3.297-11.037-2.662-14.602-5.948c-8.23-1.379-11.635,4.944-18.926,2.704
			c-3.942,3.447-3.207,11.573-5.407,16.764c1.305,3.219,1.442,3.721,0.54,7.57c-1.442,0-2.884,0-4.326,0
			c-0.717-0.905-1.433-1.812-1.081-3.785c-4.364,1.563-4.279,9.149-7.03,12.979c-6.535,9.094-19.529,3.269-23.793-6.489
			c-2.635-0.249-6.334,0.565-8.111-0.541c1.587-5.406,4.716-3.282,7.571-1.622c0.909,0.527,2.167,0.525,2.704,1.081
			c2.474,2.562,2.847,10.613,9.734,9.193c7.911-1.631,11.974-13.087,12.979-22.713c0.096-1.898-1.827-1.778-2.163-3.244
			c1.729-6.044-3.527-12.509,0-18.386c3.438-0.735,3.654,1.753,5.407,2.704c1.501-0.302,1.744-1.861,3.245-2.163
			c2.386,0.138,2.849,2.197,4.866,2.704c2.428-0.097,4.026-1.021,4.867-2.704c-1.967-2.609-4.862-6.704-2.163-10.815
			c-0.326-3.459-3.686-3.886-5.407-5.949c-3.226,4.346-5.313,9.829-9.193,13.52c-1.654,0.392-1.591-0.933-3.245-0.541
			c-0.26-4.967-0.617-9.838-1.081-14.601c4.014-1.249,7.391-1.974,11.896-4.326c3.521-1.838,7.258-6.173,9.734-6.49
			c3.964-0.506,6.701,2.952,9.733,5.949c-0.382,1.255-2.538-1.385-3.245,0c5.048,6.355,9.066,8.7,19.468,8.652
			c8.223-0.038,16.755-5.796,17.305-11.356c0.301-3.051-0.279-5.648-2.163-6.489c-0.87-0.388-1.36,3.018-2.704,0.541
			c-2.826,7.62-15.695,15.954-24.875,8.652c9.352,0.648,18.61-2.365,21.631-9.734c0.394-1.476-1.074-1.088-1.082-2.163
			c-3.438-0.194-5.615,0.873-6.488,3.244c-1.952,0.148-1.467-2.138-3.245-2.163c-0.8,0.282-1.363,0.8-2.163,1.082
			c-0.62,2.242,1.138,2.107,1.081,3.785c-1.374,1.69-4.316,1.812-7.57,1.623c-0.432-1.011-0.903-1.98-1.081-3.245
			c-5.041,1.287-8.24,2.066-11.896-1.082c0.485-1.857,2.336-2.35,2.162-4.867c1.876-0.074,0.865,2.739,2.704,2.704
			c2.857-2.55,3.796-7.019,5.948-10.274c12.279-2.862,16.284-13.998,22.172-23.253c-1.812-2.413-4.633-1.997-6.49-1.622
			c-7.671,1.55-5.176,14.081-12.437,19.467c-2.261,1.678-4.337,1.36-5.948,3.786c-0.363,0.545-0.521,1.998-1.082,2.704
			c-2.132,2.683-5.956,4.337-8.111,6.489c-1.289,1.287-1.905,3.69-3.785,4.326c0.153-3.507,3.112-5.038,1.622-8.652
			c2.429-2.59,5.238-6.551,3.785-11.356c1.132-2.293,1.71-5.14,2.163-8.111c-2.984,0.801-3.549,4.021-6.489,4.867
			c2.955,9.126-5.474,13.747-3.785,21.63c-2.563,2.232-2.998,6.7-5.948,9.193c-4.718,3.985-12.061,3.674-18.927,1.623
			c7.285-2.68,11.328-12.69,8.111-21.09c-6.534,4.823-4.357,18.354-14.06,20.008c-3.188,1.859-2.354,7.741-6.489,8.652
			c1.182-0.621,1.738-1.867,2.163-3.245c-1.145-7.972-9.093-5.608-11.356,0.541c-8.723,1.408-13.576,8.213-24.334,5.948
			c-1.073-0.491-1.073-1.816,0-0.541c4.338,0.167,6.829,0.79,10.274-0.541c-2.296-1.85-6.269-2.022-8.652-3.785
			c1.164-1.078,4.684,0.922,6.489-0.541c-0.229-1.934-2.804-1.521-4.867-1.622c6.31-1.802,12.145-4.078,16.764-7.57
			c-2.375-0.87-3.632-2.858-4.326-5.408c-2.275,0.068-2.592,2.094-4.867,2.163c-2.59-0.101,0.929-0.94,0-2.704
			c-5.251,2.171-6.04-2.34-10.274-2.704c-0.802,0.459-1.163,1.361-1.082,2.704c-0.094,1.537,3.538-0.653,2.704,1.623
			c-3.834-0.429-6.345-3.713-10.274-1.082c-0.53,4.676,1.412,6.879,3.785,8.652c-4.877,0.187-8.703-5.354-11.356-9.193
			c-1.755,0.229-1.718,2.248-3.245,2.704c-2.941-0.123-3.081-3.047-7.03-2.163c-0.199-2.268,1.761-0.386,2.704-0.541
			c-0.438-3.347-3.852-3.719-3.785-7.57c2.818,0.607,4.132,2.718,7.57,2.704c0.45-1.915-1.078-4.312,1.082-6.489
			c2.728-0.024,2.812,2.595,4.867,3.245c3.9-1.507,7.216-3.599,11.356-4.867c-3.931-6.15-6.173-16.694-14.06-16.223
			c-2.126,0.127-3.482,2.427-5.408,3.245c-1.972,0.837-5.286,0.807-7.571,1.623c-1.729,0.617-2.991,1.9-4.866,2.163
			c-1.168-5.772,3.168-7.518,7.03-10.274c2.102-1.5,4.657-3.543,9.193-2.704c1.695-0.374,0.705-1.442,0.541-2.704
			c2.895,1.771,6.139,2.498,8.652,4.326c5.02,3.652,7.692,10.3,11.356,15.142c1.678,2.217,4.037,2.956,5.949,4.867
			c1.028,1.028,1.215,2.653,2.163,3.785c2.21,2.644,6.067,4.081,7.03,7.571c4.773,0.634,5.637,5.178,10.275,5.948
			c0.113-2.92,4.931-3.516,2.704-7.03c1.634,0.181,1.579,6.704,6.489,5.408c1.618-1.479-0.722-3.573,0-5.948
			c4.786-10.344-1.618-20.709-4.867-28.12c2.791,1.716,3.805,5.208,8.111,5.407c-0.716,5.495,4.491,12.27,3.245,20.009
			c-0.558,3.466-4.899,8.631-3.786,13.519c5.099,0.002,6.387-8.357,9.193-12.438c-1.423-5.641,0.028-9.832-0.54-14.6
			c-0.715-5.99-4.821-10.687-3.245-20.008c3.918,4.013,4.289,11.574,7.57,16.223c4.417-3.875,2.648-13.936,5.949-18.927
			c-1.4-2.926-1.528-7.125-1.623-11.356c1.267-1.257,3.505-1.543,4.867-2.704c-2.185-1.601-8.374,0.804-9.193-2.163
			c5.416-0.173,9.434-1.743,9.193-7.571c3.318,0.074,3.227-3.263,4.867-4.867c1.523,0.562,5.059,1.035,6.489,0
			c-1.332-8.92-10.979-13.782-20.008-16.764c-1.379-1.686-2.249-3.88-3.786-5.408c-1.265-0.178-2.234-0.65-3.245-1.082
			c-2.19-4.479-7.204-6.135-10.274-9.733c-8.025,3.088-9.994-8.08-14.601-11.897c-2.578,2.537,1.145,4.412,1.082,7.571
			c-4.12-1.467-3.223-7.512-5.408-10.815c-1.454-2.199-3.302-2.794-5.408-4.326c-3.583,1.221-7.434,0.02-11.356,0
			c-14.062,5.406-30.569,8.366-37.312,21.09c-4.213-0.068-4.328,3.964-7.571,4.867c-2.048,4.261-2.399,10.218-5.408,13.519
			c-2.746,11.1,1.853,20.654,2.704,31.364c1.1,1.244,2.292,2.394,3.245,3.786c-0.218,2.125-2.377,2.309-2.704,4.326
			c-0.416,2.038,0.659,2.585,0.541,4.326c-2.395,9.291-4.743,16.332-5.408,26.498c0.061,1.381,0.991,1.893,1.622,2.704
			c-2.064,5.098,0.803,9.363,0.541,14.06c-0.307,5.495-4.201,11.132-1.622,17.845c-2.32-1.285-2.439-4.771-2.704-8.111
			c-1.373-2.052-2.801-4.048-4.326-5.948c1.266-4.904-3.653-7.729-3.785-12.978c1.806-0.004,1.433,2.172,2.704,2.704
			c3.187-5.697-3.658-11.59-5.408-20.008c-0.489-2.353,0.142-4.951-0.541-7.03c-1.179-3.589-6.864-7.654-9.193-11.356
			c-1.89-3.005-2.335-6.743-7.03-6.489c-4.162,0.225-6.909,5.788-7.571,9.733c-2.128,12.682,5.602,21.212,5.408,31.905
			c-4.945-11.685-12.25-34.907,0-43.802c-0.471-6.379-1.761-11.938-3.786-16.764c0.104-8.035-2.054-13.808-2.704-21.09
			c-0.596-2.288-2.673-3.095-2.704-5.948c2.357-0.014,5.009-0.322,5.949,1.082c-0.489,1.964-3.052-1.127-3.245,0.541
			c2.25,3.138,7.005,2.708,10.815,3.245c2.672,0.376,5.314,1.794,8.112,0.541c-3.523-5.475-9.605-0.967-14.601-2.704
			c1.494-1.178,1.848-2.828,3.785-1.082c-1.247-3.8-7.095-2.999-11.896-3.244c-1.371-2.415-2.605-4.966-2.164-9.193
			c6.143-1.679,7.966,1.615,15.142,1.082c3.541,3.309,7.833,5.865,14.06,6.489c1.675-1.363-2.174-1.755-1.082-4.326
			c3.592-0.374,2.92-5.011,6.489-5.408c-2.44-1.705-6.703-1.589-6.489-5.948c2.164,0,4.327,0,6.489,0
			c-2.398-2.948-12.175-3.502-17.304-1.082c0.242,3.724,4.786,3.145,5.408,6.489c-0.532-2.184-3.146-0.024-3.785,0
			c-1.231,0.045-1.424-1.219-2.164-1.082c-0.904,0.169-1.73,2.748-3.244,1.082c-1.598,0.47,1.255,0.81,0.541,2.163
			c-3.529,0.121-4.405-4.125-8.111-2.163c-1.287-1.237-3.078-1.969-3.245-4.326c1.711-0.089,1.808,1.438,3.786,1.082
			c0.553-0.528,1.094-1.069,1.622-1.622c0.371-1.813-0.907-1.977-2.163-2.163c0.31-1.312,3.498,0.253,3.245-1.622
			c-1.031-3.475-6.977-2.037-9.193-4.326c0.595-6.183-2.914-8.262-2.704-14.06c3.292,0.062,5.538-0.481,7.571-1.623
			c3.876-2.176,4.747-7.125,7.571-9.193c3.031-2.22,7.875-1.958,9.193-6.489c12.806-5.76,16.361-20.771,30.823-24.875
			c1.046-1.94-0.208-1.981-0.541-3.786c5.826,1.5,3.919-4.732,9.734-3.245c0.965-0.837,0.359-3.246,1.622-3.785
			c2.304,0.219,5.571-0.523,7.03,0.541c3.809-3.345,8.293-0.919,10.815,2.163c4.138,5.058,10.573,15.174,13.519,21.09
			c-0.956,1.004-1.579-0.235-2.704-0.541c0.638,2.787,2.614,4.235,3.785,6.489c1.338-0.521-0.745-2.077,0-3.785
			c4.118,2.912,5.224,8.835,9.733,11.356c3.851-0.981,5.061,0.19,7.571,1.622c1.184-1.749-2.801-2.949-2.163-5.948
			c0.875-2.251,3.093,2.856,4.867,3.245c0.57-2.027-2.158-5.402-2.704-8.112c2.527,0.177,2.34,3.068,4.867,3.245
			c1.382-0.061,1.073-1.811,1.082-3.245c1.28,0.523,2.657,0.949,2.163,3.245c1.299,1.307,1.432-1.313,3.786-0.541
			c3.614,4.317,4.124,11.738,8.652,15.141c0.304-4.022-1.384-10.035,3.244-9.733c-0.138,6.266,2.647,9.61,4.326,14.06
			c4.187-6.767-2.683-18.57,3.245-23.793c-2.173-2.952-1.058-5.599,0-9.193c1.396,2.388,1.815,5.755,2.703,8.652
			c2.657-2.39-0.311-10.405,2.704-12.438c0.012-1.274-0.932-1.592-0.54-3.245c2.74,1.584,6.153,2.498,5.407,7.571
			c0.892-4.511,3.962-10.156,1.622-14.601c-2.407,0.297-2.77,2.639-3.785,4.326c-4.758-2.813-6.588-8.553-9.193-13.519
			c-0.811,2.137-1.381,4.008-4.326,2.704c2.639,7.518,3.938,13.381,2.704,22.712c-2.132-0.149-1.654,2.312-3.786,2.163
			c-1.5-1.564-1.744-4.384-3.244-5.949c-1.061,0.743-0.292,3.313-1.082,4.326c-3.781-0.373-5.057,3.473-3.786,6.489
			c-1.271-0.323-2.015-2.325-2.704-3.785c-2.013-4.267-2.965-11.312-7.57-14.06c-1.475,3.367,1.178,9.882,0.541,12.438
			c-2.899-1.787-2.602-6.771-5.408-8.652c0-1.262,0-2.523,0-3.786c-0.817-1.345-1.854-2.472-3.785-2.704
			c2.271,6.814,1.449,8.915,1.082,15.141c-8.685-1.141-16.293-8.818-23.793-13.519c-1.613-4.516-5.266-6.991-7.571-10.815
			c0.478-2.587,2.685-3.445,2.704-6.489c2.259-0.456,2.554,1.051,4.326,1.082c2.749-3.478,9.27-0.012,9.733-5.948
			c3.267-0.023,6.752-0.263,8.652,1.082c1.611-0.011,0.693-2.551,1.622-3.245c4.75,1.858,4.204-0.992,8.112-2.163
			c2.473,0.23,2.479,2.929,3.785,4.326c1.011-1.417-0.364-1.861,0.541-3.785c4.804,0.204,12.099,0.762,17.305,2.163
			c0.943-0.814-0.554-2.333,1.082-3.244c2.884,0,5.768,0,8.652,0c0.73,1.433,2.851,1.476,2.704,3.785
			c1.855-0.127,0.458-3.508,2.704-3.245c1.255,0.908,1.73,2.595,2.704,3.785c1.561-0.422,1.349-2.616,2.163-3.785
			c10.421-0.407,15.632,1.062,24.334,2.163c1.976,2.891,4.628,5.105,6.489,8.111c1.639-0.164,1.519-2.086,3.244-2.163
			c3.742,1.703,6.304,3.091,7.03,8.652c3.126,0.242,2.695-3.072,5.407-3.245c0.948,1.215,0.259,4.067,1.082,5.408
			c1.702-0.1,0.691-2.913,2.703-2.704c3.337,2.973,7.932,4.687,9.733,9.193c1.275,1.323,1.007-0.808,2.704-0.541
			c0.614,1.188,1.809,1.796,2.163,3.245c1.262,0,2.524,0,3.785,0c2.76,3.909,10.782,2.557,12.979,7.03
			c-0.776,2.829-3.645,3.566-4.867,5.948c-3.636-0.127-6.723,1.193-8.652,3.245c-0.669,0.712-0.405,2.162-1.081,3.245
			c-0.89,1.426-3.302,2.404-3.785,3.245c-0.109,0.19,0.709,1.688,0.541,2.163c-0.849,2.393-2.902,2.367-4.326,3.785
			c-2.022,0.039-3.097-0.869-3.785-2.163c-2.856,0.929-4.332,3.239-6.489,4.866c-1.345,0.084-1.675-0.849-2.704-1.081
			c-1.972,2.174-1.929,6.363-3.245,9.193c-6.973,0.238-2.961,11.459-9.732,11.897c-0.359-3.243,0.489-5.278,0.54-8.112
			c-4.296,0.343-6.203,13.872-12.979,7.03c-0.624,5.865-3.635,9.343-5.407,14.06c3.744,1.062,6.467-2.51,9.733-4.326
			c3.309-1.839,7.247-2.809,10.274-4.867c2.799-1.903,4.37-4.84,7.03-6.489c2.841,1.095,2.204,3.404,4.326,4.867
			c2.335,1.61,5.553,0.941,8.111,2.163c0.95,0.454,2.543,2.388,4.326,3.786c1.661,1.303,3.56,2.097,4.867,3.245
			c0.847,0.743,1.31,2.467,2.163,3.245c1.027,0.937,2.596,0.937,3.244,1.622c0.591,0.625,0.363,2.047,1.081,2.704
			c2.068,1.891,4.824,2.689,6.489,4.867c0.585-1.759,1.598-3.089,2.704-4.326c-0.914-2.331-1.839-4.65-3.785-5.948
			c0.385-1.958,1.886-2.801,2.163-4.867c-2.657,0.408-3.16,2.969-5.948,3.245C397.754,247.934,399.018,244.512,401.387,242.194z"/>
		<path fill-rule="evenodd" clip-rule="evenodd" d="M258.626,385.496c-0.628-0.454-1.45-0.713-2.704-0.541
			c-1.623-2.898-1.459-3.061,0.541-0.541C257.421,384.538,259.171,383.87,258.626,385.496z"/>
		<path fill-rule="evenodd" clip-rule="evenodd" d="M257.544,502.842c0.733,0.167,0.448,1.354,0.541,2.163
			c0.295,2.228,1.693,3.354,2.704,4.866c-0.749,3.848,2.25,5.786,3.786,8.652c2.588,4.83,4.984,12.599,8.111,19.468
			c3.108,6.826,5.955,13.613,9.193,17.845c2.688,3.512,5.445,7.342,10.815,6.489c1.631-0.259,2.193-1.496,3.786-1.622
			c2.285-0.182,5.094,1.216,7.03,1.081c9.281-0.646,6.709-13.174,15.683-15.682c1.947,4.44-2.498,6.277-2.163,10.815
			c9.998,5.614,19.859-10.956,9.192-15.142c-5.312,2.804-11.275-0.719-15.141-2.704c-6.161-1.499-11.8,2.203-16.223,1.082
			c-3.302-0.837-6.546-6.181-7.571-9.734c3.707-1.162,8.091,4.366,14.06,4.326c0.653-2.636-2.15-1.816-2.164-3.785
			c1.212-1.852,1.541-4.588,5.408-3.785c-0.825-2.601-2.432-4.417-5.408-4.867c-4.425-5.324-10.648-6.382-15.141-11.355
			c-1.153-1.276-2.024-3.257-3.245-4.867c-6.077-8.022-13.237-17.689-17.845-27.579c-6.023-12.927-10.634-29.091-17.845-41.639
			c-2.009-3.496-3.6-7.253-6.489-10.274c-4.904,3.523,0.897,7.715,1.082,12.438c-1.408-4.721-6.716-5.541-5.948-12.438
			c-2.027-3.098-10.682-4.449-12.438-10.274c-1.359-4.51,0.213-11.03,4.326-12.438c5.395,1.811,9.191-1.491,15.142,0.541
			c4.976-1.513,10.435-2.543,11.896-7.571c2.817,0.293,4.886-0.162,6.489-1.082c-0.836,0.787-0.477,2.769-0.541,4.326
			c1.616,1.087,5.102,0.306,7.57,0.541c-0.059,7.511,8.686,6.915,16.764,7.57c-1.731,2.595-7.528,1.123-9.193,3.785
			c-7.358-2.557-10.511,2.473-15.682,4.867c-3.428,1.587-6.364,1.007-7.571,4.866c-0.081,1.343,0.279,2.245,1.082,2.704
			c-3.098,1.309-6.511-6.346-10.815-2.163c1.84,2.96,5.665,4.172,8.652,5.948c2.878,1.713,5.649,3.794,8.652,5.408
			c5.903,3.173,12.581,7.326,18.927,9.192c1.055,0.312,2.625-0.217,3.785,0c7.136,1.336,13.768,6.726,21.63,8.652
			c6.695,1.641,12.921-0.321,19.468,3.244c1.359,1.424-1.357,1.822-1.623,3.245c1.763,0.723,4.098-0.354,6.489-0.541
			c-0.192,2.691-1.515,4.255-1.622,7.03c-1.989-7.297-15.652-4.919-13.52,4.326c-2.072-1.449-1.946-11.778-8.652-10.274
			c-2.957,0.663-2.8,3.456-3.786,7.029c0.126-6.181-11.54-15.832-11.356-3.244c-1.451-3.957-2.555-8.261-6.489-9.733
			c-2.804-0.462-1.758,2.928-3.785,3.244c-0.531-2.713-1.86-4.629-3.785-5.948c-3.716,0.068-1.328,6.243-3.785,7.57
			c0.474-3.966,0.842-7.595-2.164-10.273c-3.286,5.687-4.276,21.451,4.867,21.089c1.662,3.024,3.925,5.448,8.111,5.948
			c-4.133,2.588-7.082-3.112-10.815-0.541c2.589,3.36,0.937,10.96,4.867,12.979c0.923-2.141,0.599-5.529,1.081-8.111
			c1.88,5.691,1.853,13.289,5.949,16.764c1.515-0.287,1-2.605,1.623-3.785c0.943,3.202,3.594,4.698,3.785,8.652
			c3.701-1.104,5.202-2.253,4.326-7.03c1.599,1.285,2.097,3.671,3.245,5.407c-0.731,1.605-1.886-2.036-3.245,0
			c0.764,7.646,10.638,3.03,14.601,7.03c3.062-0.364,5.577-1.271,5.948-4.326c0.315-1.937-1.601-1.644-3.245-1.622
			c-0.136-1.938,1.625-1.981,1.623-3.785c2.097,0.968,1.992,4.136,3.785,5.407c3.705-0.5,5.491-5.473,6.489-10.274
			c0.315-1.519-1.116-4.374,1.082-4.866c-0.42,5.49-2.62,11.688,2.163,14.06c4.93-2.1,6.744-7.315,7.569-13.52
			c2.28,3.498,0.642,5.7,0.542,10.275c5.778-0.892,7.188-6.151,8.111-11.897c2.17,0.354,1.184,3.864,3.785,3.785
			c2.605-1.54,3.796-4.495,3.785-8.651c1.53-0.089-0.449,3.333,1.082,3.244c2.803,0.1,2.19-3.217,3.244-4.867
			c1.4-1.844,3.495-2.994,3.244-6.488c-3.256-1.478-6.528,1.286-7.029,4.325c-0.93-0.693-0.671-2.574-2.163-2.704
			c-2.901,1.064-4.421,3.511-5.407,6.49c-1.089-1.075-1.769-2.559-3.245-3.245c-2.089,1.336-4.897,1.953-4.867,5.407
			c-1.284-0.338,0.084-3.328-1.082-3.785c-2.31-0.146-2.352,1.975-3.784,2.704c-4.251-1.703-4.537,1.813-8.112,2.163
			c-0.158-0.481-1.463-2.367-1.622-1.082c-0.732-2.078,2.79-1.495,4.326-3.244c1.533-1.746,1.804-4.735,2.163-5.948
			c1.521-1.661,0.975,3.32,2.704,3.244c6.658,0.711,8.979-2.917,8.111-9.733c1.477,3.549-0.2,7.303,3.785,9.733
			c3.265-1.684,5.914-4.072,4.867-8.652c2.056-0.433,0.688,2.558,1.081,3.786c6.565,0.616,9.208-2.689,8.111-9.734
			c1.297-0.375-0.32,6.795,1.623,7.571c7.785-2.594,11.347-13.9,7.57-23.254c-5.981-2.343-7.391,3.991-8.652,8.112
			c-1.455-1.7,0.882-4.022-1.081-5.408c-7.528-0.678-7.502,6.199-7.03,13.52c-1.902-3.022,0.112-7.231-1.082-10.274
			c-6.121,0.349-8.214,6.444-8.651,10.814c-1.368-2.417-0.497-7.073-4.327-7.029c9.286-4.617,19.324-8.961,28.661-13.519
			c4.448-2.172,10.268-4.181,14.601-7.03c6.491-4.27,11.279-10.808,18.927-12.979c-3.563,6.711-7.658,12.893-10.815,20.009
			c-0.734-2.191,1.81-5.75,1.081-9.734c-2.48,1.689-3.694,4.973-4.866,7.57c-2.64,5.853-5.116,11.706-7.57,17.305
			c-1.386,3.159-1.529,6.238-2.704,9.734c-1.106,3.291-3.429,6.742-4.867,10.274c-1.306,3.204-1.863,5.133-3.785,7.57
			c-4.979,6.312-9.738,17.106-17.846,21.09c-0.481,1.682-1.806,2.52-2.162,4.326c-1.673,0.671-3.354,1.333-4.326,2.704
			c6.92,4.467,10.557-7.13,16.223-9.193c-5.979,8.261-13.959,14.521-24.875,17.846c14.554,0.294,24.611,2.766,22.171,20.548
			c-0.174,1.267-1.162,2.224-1.622,3.786c-2.365,8.03-2.32,17.16-7.57,21.089c11.444-4.301,15.739-20.739,21.63-34.607
			c4.778-11.248,9.391-22.092,14.06-31.365c1.21,7.281-4.866,16.707-1.622,24.335c0.354,3.237-2.33,3.438-3.244,5.407
			c-0.443,4.59,0.555,7.737,1.622,10.815c-0.72-0.542-1.632-0.892-2.163-1.622c-3.004,3.372-4.434,7.709-3.245,12.978
			c-2.404,4.084-6.218,6.76-8.111,11.356c10.558-4.765,15.458-19.872,23.254-29.201c0.418-9.285,4.232-15.824,3.244-23.253
			c-0.161-1.212-1.013-2.042-1.082-3.244c-0.262-4.592,1.378-9.615,1.082-16.224c2.571,13.83,0.923,32.099-1.623,44.343
			c-6.604,8.584-9.702,20.375-18.926,27.579c-2.418,1.888-5.827,3.145-8.653,5.407c-2.585,2.072-4.771,4.331-7.569,5.948
			c-2.809,1.624-6.101,2.99-9.193,4.867c-2.75,1.668-5.557,4.438-8.112,5.407c-1.397,0.531-3.214,0.154-4.866,0.541
			c-3.417,0.801-6.69,2.441-9.733,2.704c-2.642,0.228-5.623-1.12-8.112,0.541c4.85,5.721,15.701,9.997,14.601,19.467
			c-0.604,5.203-5.942,7.605-8.651,11.897c-0.331,3.995,0.285,8.938-2.704,10.274c-2.875-1.179-6.873-2.611-9.734-4.867
			c-2.335-1.842-5.2-6.027-7.57-9.193c-5.16-6.892-5.334-13.359,0.541-19.467c2.276-2.366,6.397-3.015,5.408-8.111
			c-0.702-3.615-12.501-9.171-17.845-12.979c-3.06-2.181-5.783-4.914-8.652-7.03c-2.958-2.182-6.517-3.54-9.193-5.948
			c-3.853-3.466-7.551-9.705-11.896-14.06c-1.085-1.088-2.856-1.642-3.786-2.704c-1.978-2.261-4.252-6.312-6.489-9.733
			c-2.25-3.441-4.757-7.144-5.407-10.274c-1.223-5.883-0.854-13.992-1.623-19.468c-0.861-6.135,1.597-15.267,0.541-21.09
			c-0.766-4.22-3.817-5.413-7.03-9.192c-0.074-11.103-6.538-15.814-6.489-27.038c2.279,6.761,4.131,15.288,7.57,21.631
			c2.355,4.344,6.462,9.562,9.734,14.06c2.257,3.102,4.68,6.347,6.489,9.733c-3.299-3.19-5.896-7.083-9.193-10.274
			c1.983,4.203,0.792,8.946,1.622,13.519c1.101,6.06,4.013,11.812,4.867,17.846c0.461,3.258-0.116,6.618,0.541,9.733
			c0.757,3.591,3.354,7.574,5.408,11.356c3.586,6.604,5.516,11.947,10.274,16.764c12.412,8.497,21.193,20.625,36.772,25.956
			c2.961-2.386-0.207-7.727,2.163-10.274c-10.334-5.889-21.923-10.522-23.793-24.875c-7.556-11.19-11.955-25.537-17.845-38.395
			C257.544,505.726,257.544,504.283,257.544,502.842z"/>
		<path fill-rule="evenodd" clip-rule="evenodd" d="M285.664,476.344c0.39-2.134,0.59-4.457,2.163-5.407
			c-2.427,6.274,7.371,9.77,11.356,6.489C297.031,483.053,288.873,476.28,285.664,476.344z"/>
	</g>
</g>
</svg>
